<?xml version="1.0" standalone="no"?>
<!DOCTYPE svg PUBLIC "-//W3C//DTD SVG 20010904//EN"
 "http://www.w3.org/TR/2001/REC-SVG-20010904/DTD/svg10.dtd">
<svg version="1.0" xmlns="http://www.w3.org/2000/svg"
 width="500.000000pt" height="500.000000pt" viewBox="0 0 500.000000 500.000000"
 preserveAspectRatio="xMidYMid meet">

<g transform="translate(0.000000,500.000000) scale(0.100000,-0.100000)"
fill="#000000" stroke="none">
<path d="M2473 4718 c-13 -16 -2463 -4257 -2463 -4264 0 -2 1111 -4 2470 -4
1359 0 2470 2 2470 5 0 3 -550 958 -1223 2123 -673 1164 -1228 2125 -1234
2135 -8 15 -12 16 -20 5z m80 -740 c3 -7 268 -661 590 -1454 322 -792 595
-1463 606 -1492 l21 -52 -392 2 -392 3 -28 75 c-16 41 -40 105 -54 143 l-26
67 -407 0 -408 0 -49 -135 c-26 -74 -51 -140 -54 -145 -4 -7 -144 -9 -397 -8
l-390 3 610 1503 610 1502 77 0 c53 0 79 -4 83 -12z"/>
<path d="M2452 3739 c-15 -35 -1036 -2546 -1059 -2607 -4 -10 43 -12 227 -10
l233 3 39 105 c21 58 45 124 54 148 l16 42 510 -2 510 -3 55 -148 55 -147 229
0 c126 0 229 2 229 5 0 3 -239 594 -531 1313 -292 719 -535 1316 -539 1327 -7
17 -11 14 -28 -26z m202 -1450 c91 -262 166 -481 166 -488 0 -8 -97 -11 -356
-11 -281 0 -355 3 -351 13 4 11 328 910 350 971 9 26 11 27 17 10 4 -10 82
-233 174 -495z"/>
<path d="M2393 2147 c-39 -111 -70 -203 -69 -205 2 -1 68 -1 148 0 l145 3 -70
203 c-39 111 -73 202 -76 202 -3 0 -38 -91 -78 -203z"/>
</g>
</svg>
